<svg width="32" height="32" viewBox="0 0 32 32" fill="none" xmlns="http://www.w3.org/2000/svg">
<path d="M27.9964 18.8571H3.14279C2.98565 18.8571 2.85708 18.9857 2.85708 19.1429V21.2857C2.85708 21.4429 2.98565 21.5714 3.14279 21.5714H24.7571L19.6035 28.1071C19.4571 28.2929 19.5892 28.5714 19.8285 28.5714H22.4178C22.5928 28.5714 22.7571 28.4929 22.8678 28.3536L28.8964 20.7071C29.4857 19.9571 28.9535 18.8571 27.9964 18.8571ZM28.8571 10.4286H7.24279L12.3964 3.89286C12.5428 3.70715 12.4107 3.42857 12.1714 3.42857H9.58208C9.40708 3.42857 9.24279 3.50715 9.13208 3.64643L3.10351 11.2929C2.51422 12.0429 3.04637 13.1429 3.99994 13.1429H28.8571C29.0142 13.1429 29.1428 13.0143 29.1428 12.8571V10.7143C29.1428 10.5571 29.0142 10.4286 28.8571 10.4286Z" fill="#464646"/>
</svg>
